<svg version="1" xmlns="http://www.w3.org/2000/svg" width="400" height="400" viewBox="0 0 300.000000 300.000000"><path d="M136.9 50c-8.8 1.5-19.3 10.6-24.7 21.1-5.6 11.1-6.3 21.3-2.1 31.6 1.2 3 1.1 3.3-3.9 8.8-11 12.1-29 42.4-33.7 57-1.4 4.2-2 8.8-2 15.5 0 16.7 5.8 28.1 18.5 36.8 7.9 5.4 8.5 6.9 3.2 7.8-5.8.9-11.2 4.3-14.6 9.2-2.4 3.4-3.1 5.5-3.4 10.7-.5 7.7.8 11.4 5.4 15.5l3.4 2.9v9.8c0 7.7-.5 11.2-2.4 16.5-1.9 5.3-2.1 6.8-1 6.8.7 0 1.8-.9 2.4-2 1.4-2.6 3.4-2.6 2.7 0-.5 1.9 0 2 10.1 2h10.7l-.3-7.7c-.8-18.4 7.1-22.3 8.4-4.1.3 4 .7 8.3 1 9.5l.4 2.3h95v-11.5l2.9 5.5 2.8 5.5 11.5.3 11.5.3-4.8-9.8c-2.7-5.4-5.8-13.4-6.9-17.7l-2-8 2.9-3c6.2-6.6 8.1-15.3 5.2-24-2.8-8.3-14.8-17.6-22.8-17.6-1.8 0-3.3-.3-3.3-.6 0-.4 1.4-2.2 3.1-4.2 7.3-8.3 10.4-19.6 9.6-35.2-.8-16.6-6.4-31.6-18.5-49.9-10-15.1-30.9-34.8-40-37.6-2-.6-2.3-1.2-1.8-3.3 2.4-10.5 2.8-15 1.7-20.4-2.8-13.3-12.4-20.8-24.2-18.8zm-4.9 9.4c0 1.5-2.1 2.6-5.1 2.6-2.4 0-2.4-.9-.1-2.6 2.3-1.8 5.2-1.8 5.2 0zm-8 4.1c0 1.9-3.4 6.7-6.1 8.6-2.8 2-3 2.5-2.4 5.8 1 5.3.7 12.3-.5 13.5-2 2-3.1-1.7-2.7-9 .4-7.7 3.6-14.8 7.9-17.9 2.3-1.5 3.8-1.9 3.8-1zm-2.2 11.7c-.7 1.9-3.8 2.2-3.8.4 0-1 .9-1.6 2.1-1.6 1.2 0 1.9.5 1.7 1.2zm-24.2 54.1C84 152.2 77.5 174.4 80 188.7c1.5 8.8 3.7 12.8 10.7 19.3 9.5 8.9 16.4 16.2 15.9 16.8-.3.2-4.4-1.5-9.1-3.8-17.8-8.8-26.2-24-23.5-42.7 1.1-7.9 2.3-11.6 7.8-23.5 4.9-10.5 18.3-32.8 19.7-32.8.2 0-1.5 3.3-3.9 7.3zm59.6-4.7c3.4.7 8.8 6.7 8.8 9.9 0 6.2-2.7 7.7-18.1 10.4-35.5 6.2-43.7 5.4-47-4.6-1.4-4.4.4-7.3 6.3-10 11.5-5.3 37.1-8.3 50-5.7zm-9.8 57.6c1.3 11.7.2 14.8-5.5 14.8H139v-18.9l2.8-.4c1.5-.2 3.2-.5 3.8-.6.6 0 1.4 2.2 1.8 5.1zm-10.4 5.4c0 8.5-.2 9.5-1.7 9.2-2.5-.5-4.6-5.4-5.1-12-.4-5.6-.4-5.7 2.4-6.1 1.6-.2 3.2-.5 3.7-.6.4 0 .7 4.2.7 9.5zm-25.9 77c1.3 1.6.4 4.4-1.8 5.1-1.8.6-5.7-3.3-5-5 .8-2.1 5-2.2 6.8-.1zm-24.6 25c-.3 2.4-1.1 4.4-1.7 4.4-.6 0-.8-1.1-.4-2.8.3-1.5.9-4.3 1.3-6.2 1-4.9 1.7-1 .8 4.6z"/><path d="M96 218c0 1.1.7 2 1.5 2s1.5-.9 1.5-2-.7-2-1.5-2-1.5.9-1.5 2z"/></svg>